<?xml version="1.0" encoding="utf-8"?>
<!-- Generator: Adobe Illustrator 16.0.0, SVG Export Plug-In . SVG Version: 6.00 Build 0)  -->
<!DOCTYPE svg PUBLIC "-//W3C//DTD SVG 1.1//EN" "http://www.w3.org/Graphics/SVG/1.1/DTD/svg11.dtd">
<svg version="1.1" id="Layer_1" xmlns="http://www.w3.org/2000/svg" xmlns:xlink="http://www.w3.org/1999/xlink" x="0px" y="0px"
	 width="81.753px" height="30px" viewBox="0 0 81.753 30" enable-background="new 0 0 81.753 30" xml:space="preserve">
<path fill="#006CAD" d="M81.189,4.486c-0.24-0.218-0.908-0.669-1.965-0.142l-0.012,0.005c-0.193,0.099-4.756,2.504-6.754,10.026
	l-0.014,0.06c-0.008,0.036-0.131,0.634-0.227,1.46c-1.537,1.415-3.688,3.055-4.809,2.86c-0.92-0.57,0.57-3.424,1.633-4.978
	l-0.684-2.169c0.236-0.054,0.236-0.054,0.51-0.045l-0.156-1.494c-0.371-0.049-1.012-0.034-2.186,0.247
	c-1.969,0.472-3.453,1.288-3.59,1.364c-1.82,1.021-3.277,2.423-4.016,3.772c-0.102,0.103-0.168,0.169-0.188,0.189
	c-3.119,3.246-5.027,3.916-5.178,3.963l-0.041,0.01l-0.08,0.032c-1.191,0.142-0.324-2.708,2.535-7.303
	c0.318-0.512,0.637-1.009,0.949-1.483h1.736l1.723-2.186H58.49c0.15-0.218,0.322-0.471,0.535-0.794l-1.104-2.27
	c-0.057,0.073-0.984,1.31-2.172,3.064h-1.959l-1.721,2.186h2.043c-4.064,5.109-6.961,7.202-7.479,7.582
	c0.617-0.749,0.748-1.314,0.889-2.371c0.211-1.542-0.176-2.842-0.223-2.986l-0.033-0.094c-0.291-0.7-0.432-1.202-0.492-1.55
	l2.346-2.502l-2.035-0.323c-0.584-0.093-1.471,0.054-2.039,0.778c-0.262,0.331-0.42,0.731-0.477,1.203l-9.516,10.158l4.577-8.119
	l-1.839-1.177c-3.596,4.978-6.732,6.983-6.76,7.001l-0.03,0.018c-0.791,0.529-1.248,0.318-1.48,0.08
	c-0.146-0.504-0.092-1.035,0.093-1.567c1.328-1.334,2.826-2.945,4.49-4.821l-1.412-1.645c-0.065,0.043-1.66,1.075-3.094,2.604
	c-0.879,0.938-1.459,1.81-1.821,2.602c-3.101,3.079-4.345,3.711-4.677,3.838h-0.166c-0.195,0-0.254-0.037-0.254-0.037
	c-0.021-0.025-0.04-0.115-0.04-0.186l0.003-0.051c0.104-2.114,2.714-5.317,3.71-6.372l-0.97-1.83
	c-2.347,0.384-3.375,0.47-4.225,0.487l0.455-0.939l-2.369-0.055c-0.929,0.327-1.729,1.309-1.425,2.084
	c0.054,0.139,0.127,0.26,0.21,0.366c-0.134,0.157-0.26,0.286-0.338,0.362c-0.912,0.902-2.258,1.812-3.341,2.542
	c-0.202,0.139-0.397,0.271-0.58,0.395c-4.247,2.909-10.784,4.301-10.433-1.059c0.219-3.323,3.928-7.859,7.74-10.392
	c6.581-4.374,7.127-2.278,7.127-2.278c1.648,2.238-10.621,8.179-10.658,8.2l1.859,3.267c0.109-0.061,2.689-1.522,5.296-3.574
	c3.647-2.872,7.002-6.962,4.765-9.714C18.8-0.034,17.5-0.162,15.868,0.171l-0.073,0.017c-0.109,0.03-2.69,0.761-5.846,2.823
	C7.044,4.914,3.07,8.364,0.652,14.001l-0.016,0.035c-0.135,0.35-1.293,3.479-0.107,5.735c0.523,0.996,1.43,1.672,2.623,1.956
	c0.707,0.168,1.426,0.252,2.163,0.252c2.809,0,8.022-1.323,13.917-7.026c0.238-0.231,0.723-0.789,0.959-1.152
	c0.045,0.001,0.088,0.002,0.126,0.002c0.688,0.016,1.552-0.034,2.612-0.153c-1.129,1.548-2.368,3.648-2.468,5.518
	c-0.021,0.248-0.037,1.127,0.597,1.832c0.291,0.322,0.818,0.703,1.691,0.752c0.822,0.179,1.85-0.447,2.604-0.978
	c0.601-0.424,1.284-0.982,2.051-1.669c0.037,0.131,0.076,0.254,0.121,0.373l0.045,0.124l0.074,0.11
	c0.684,1.001,2.461,1.984,4.559,0.593c0.088-0.054,0.445-0.287,1.006-0.728l-4.52,8.02L29.415,30l1.024-1.119l14.6-15.584
	c0.059,0.158,0.121,0.318,0.188,0.482c0.121,0.422,1.148,4.443-1.838,4.809c-0.838,0.035-1.254-0.565-1.275-1.277l-2.288,1.571
	c0.046,0.084,1.119,2.062,3.27,2.644c1.396,0.379,2.875,0.096,4.393-0.843l0.047-0.03c0.105-0.071,1.646-0.936,3.359-3.451
	c-0.729,1.604-0.328,3.973,0.977,4.529c0.477,0.203,1.256,0.376,2.318-0.03c0.383-0.116,1.855-0.661,4.164-2.669
	c0.357,1.806,3.4,3.418,6.787-0.713c0.012,0.647,0.172,1.268,0.543,1.822l0.035,0.055l0.043,0.051
	c0.156,0.181,1.596,1.699,4.637-0.381c0.148-0.094,0.811-0.515,1.744-1.182c0.125,1.398,0.557,2.338,1.307,2.861
	c0.211,0.16,0.629,0.391,1.27,0.369c1.529-0.053,3.727-2.959,4.236-4.78l-0.006-1.001c-2.756,3.26-3.355,3.532-3.932,3.639
	c-0.602-0.019-0.781-0.83-0.719-2.439c0.002-0.101,0.008-0.198,0.014-0.296c2.549-2.06,5.607-4.997,6.787-7.998
	c0.119-0.301,0.385-1.089,0.537-1.912C81.791,6.309,81.91,5.147,81.189,4.486z M60.496,18.557c-1.074-0.371,1.088-4.715,7.043-6.653
	c0.721-0.234,0.721-0.234,0.721-0.234c-0.193,0.23-0.607,0.742-1.029,1.345C64.688,16.236,61.826,19.297,60.496,18.557z
	 M79.064,8.239c-0.723,1.837-2.348,3.71-4.076,5.321c1.34-3.932,3.4-5.938,4.49-6.774C79.381,7.273,79.223,7.838,79.064,8.239z"/>
</svg>
